:SAMPLES-PER-SECOND 30
:FULLY-SPECIFIED
:DEGREES
183
root  -26.9892 39.4856 7.08394 -157.649 -86.7886 154.188
RightUpLeg  2.15048 -7.55934 1.61638
RightLeg  15.9722 2.16676 0.737837
RightFoot  -15.2536 -0.329371 -6.62566
RightToes  -1.74624e-010 0 -3.6325e-017
Spine  6.40735 1.85883 13.2581
Spine1  6.20261 5.07051 -10.129
HEad  -21.4835 -14.0025 -5.12706
LeftShoulder1  -0.434785 4.64921 -31.8186
LeftArm  -5.0631 31.4658 -31.0622
LeftForeArm  32.8411 -8.52555 -6.73988
LeftHand  -0.0538069 8.21839 -0.343219
RightShoulder  -0.768336 -5.90006 25.4188
RightArm  17.1751 22.6492 50.3694
RightForeArm  16.4592 38.3011 7.83119
RightHand  -0.160653 6.40538 -1.92663
LeftUpLeg  -19.7686 -2.91595 2.86445
LeftLeg  21.4007 -3.4468 -1.09458
LeftFoot  0.303534 0.559463 -5.49984
LeftToes  -3.96543e-010 8.93632e-011 -2.58531e-011
184
root  -28.157 39.502 7.06112 -160.292 -85.9855 156.958
RightUpLeg  4.87091 -7.58 0.998467
RightLeg  14.1706 3.22125 0.869752
RightFoot  -16.0101 -0.363547 -6.24686
RightToes  -1.74624e-010 0 -3.6325e-017
Spine  5.63376 2.08131 12.378
Spine1  6.76715 5.27778 -10.7403
HEad  -21.7734 -14.9561 -4.81401
LeftShoulder1  -0.4198 4.61622 -31.6039
LeftArm  -5.29491 33.0957 -31.8866
LeftForeArm  33.3858 -8.97959 -6.56486
LeftHand  -0.0667895 7.93684 -1.01108
RightShoulder  -0.761158 -5.87731 25.4104
RightArm  18.9622 23.8167 51.3244
RightForeArm  16.3447 38.0227 7.75718
RightHand  -0.164884 5.76332 -2.04238
LeftUpLeg  -18.4098 -1.04423 1.91613
LeftLeg  9.64218 -5.42863 -0.763376
LeftFoot  0.847643 0.729348 -6.87856
LeftToes  -3.96543e-010 8.93632e-011 -2.58531e-011
185
root  -29.366 39.4362 7.05284 -162.118 -85.4251 158.684
RightUpLeg  7.69313 -7.80466 0.259882
RightLeg  12.8709 4.16865 1.06511
RightFoot  -17.0904 -0.410408 -5.88696
RightToes  -1.74624e-010 0 -3.6325e-017
Spine  5.09427 2.15024 11.1463
Spine1  7.1306 5.25185 -10.742
HEad  -21.6811 -15.1643 -4.84948
LeftShoulder1  -0.47409 4.75009 -31.8781
LeftArm  -4.9273 33.5966 -32.2652
LeftForeArm  33.7327 -9.22225 -6.69951
LeftHand  -0.0724863 7.80964 -1.35824
RightShoulder  -0.813996 -5.99635 26.04
RightArm  21.4668 24.606 51.9639
RightForeArm  15.3832 36.5461 7.3889
RightHand  -0.120799 6.19912 -1.54264
LeftUpLeg  -17.2529 2.68557 0.520515
LeftLeg  1.16367 -3.42012 -0.721526
LeftFoot  1.68425 0.881225 -7.78966
LeftToes  -3.96543e-010 8.93632e-011 -2.58531e-011
186
root  -30.6844 39.2355 7.1027 -163.405 -85.1947 159.555
RightUpLeg  10.5332 -8.18859 -0.649375
RightLeg  12.7346 5.06082 1.25248
RightFoot  -18.9742 -0.45537 -4.90311
RightToes  -1.74624e-010 0 -3.6325e-017
Spine  4.70363 1.994 10.2018
Spine1  7.27278 5.02372 -10.7328
HEad  -21.2945 -14.8665 -4.54292
LeftShoulder1  -0.560493 4.96128 -32.3143
LeftArm  -4.57751 33.155 -32.5517
LeftForeArm  34.4917 -9.21472 -6.90733
LeftHand  -0.0803407 8.46081 -1.23776
RightShoulder  -0.784816 -5.8992 26.1089
RightArm  24.1512 23.8452 53.0949
RightForeArm  13.4808 34.4279 6.92241
RightHand  -0.250812 6.03112 -2.87615
LeftUpLeg  -16.2477 2.91949 -0.0451026
LeftLeg  -2.344 6.0172 -1.79753
LeftFoot  2.65812 1.07705 -8.83446
LeftToes  -3.96543e-010 8.93632e-011 -2.58531e-011
187
root  -32.0477 38.9971 7.17152 -161.226 -85.0026 156.945
RightUpLeg  13.0933 -8.3815 -1.78685
RightLeg  13.3231 5.88037 1.26338
RightFoot  -20.8884 -0.443297 -3.61863
RightToes  -1.74624e-010 0 -3.6325e-017
Spine  4.02724 1.83719 9.51158
Spine1  7.82685 5.08116 -11.531
HEad  -20.5728 -15.5155 -3.66045
LeftShoulder1  -0.526937 4.88183 -32.1032
LeftArm  -4.96058 31.3443 -33.4098
LeftForeArm  36.1929 -8.3343 -7.08664
LeftHand  -0.0707511 7.46114 -1.53263
RightShoulder  -0.885614 -6.12251 27.2427
RightArm  26.8516 22.6896 53.8108
RightForeArm  12.1756 31.3814 6.20434
RightHand  -0.338969 5.80366 -3.83583
LeftUpLeg  -16.0923 2.5809 -1.34028
LeftLeg  -0.383323 12.3958 -1.87962
LeftFoot  3.83436 0.809088 -6.54133
LeftToes  -3.96543e-010 8.93632e-011 -2.58531e-011
188
root  -33.4233 38.8205 7.20109 -156.632 -84.5684 151.794
RightUpLeg  15.6194 -7.53513 -2.90098
RightLeg  14.0772 6.06324 1.10117
RightFoot  -22.0589 -0.272146 -1.31578
RightToes  -1.74624e-010 0 -3.6325e-017
Spine  3.85692 1.94418 7.51414
Spine1  7.88921 5.08148 -11.1175
HEad  -19.6158 -15.4253 -3.46208
LeftShoulder1  -0.573 4.97643 -32.7243
LeftArm  -4.25936 29.0196 -33.4616
LeftForeArm  37.1133 -8.46087 -7.48613
LeftHand  -0.0696731 7.71656 -1.30684
RightShoulder  -0.865252 -6.06822 27.1555
RightArm  29.2016 19.7318 54.7485
RightForeArm  10.4075 27.9514 5.40766
RightHand  -0.283597 5.59246 -3.32734
LeftUpLeg  -17.3544 2.81338 -3.03264
LeftLeg  6.00735 10.1254 -0.692015
LeftFoot  7.90121 -0.428071 2.28129
LeftToes  -3.96543e-010 8.93632e-011 -2.58531e-011
189
root  -34.8376 38.6618 7.24528 -150.204 -83.4361 144.351
RightUpLeg  17.3462 -5.37432 -4.5207
RightLeg  17.3115 5.66112 1.46816
RightFoot  -22.8357 0.0558113 2.02494
RightToes  -1.74624e-010 0 -3.6325e-017
Spine  4.26927 2.08927 4.92746
Spine1  7.55819 5.06727 -10.8621
HEad  -18.6212 -15.6894 -2.81144
LeftShoulder1  -0.734717 5.34295 -33.7896
LeftArm  -3.02357 25.6704 -32.8694
LeftForeArm  36.8258 -8.71774 -7.99918
LeftHand  -0.104424 9.1463 -1.58283
RightShoulder  -0.899229 -6.09008 28.1587
RightArm  32.6983 17.052 55.2503
RightForeArm  9.0059 22.8916 4.91109
RightHand  -0.137095 6.24727 -1.70065
LeftUpLeg  -17.6944 4.5399 -5.38624
LeftLeg  12.2055 7.91464 0.906533
LeftFoot  8.8981 -1.22763 6.61485
LeftToes  -3.96543e-010 8.93632e-011 -2.58531e-011
190
root  -36.2157 38.5271 7.31607 -141.468 -82.207 134.696
RightUpLeg  16.5456 -2.89813 -6.52379
RightLeg  24.9343 5.17725 2.4669
RightFoot  -22.1509 0.532719 7.3786
RightToes  -1.74624e-010 0 -3.6325e-017
Spine  4.17893 2.09396 2.61527
Spine1  7.99538 5.07227 -11.4662
HEad  -18.0405 -15.7238 -2.04299
LeftShoulder1  -0.796861 5.48366 -34.0824
LeftArm  -3.37009 20.4666 -33.3921
LeftForeArm  37.9056 -7.67295 -8.32599
LeftHand  -0.121715 9.2487 -2.03189
RightShoulder  -1.01281 -6.29958 29.692
RightArm  30.33 15.0006 55.7506
RightForeArm  12.4805 15.6128 7.00312
RightHand  -0.131507 5.6934 -1.6981
LeftUpLeg  -17.4235 6.86708 -8.12007
LeftLeg  17.7777 6.14583 2.42718
LeftFoot  4.95048 -1.00044 6.76633
LeftToes  -3.96543e-010 8.93632e-011 -2.58531e-011
191
root  -37.4239 38.5364 7.44033 -141.141 -80.9065 133.745
RightUpLeg  13.0558 -1.40277 -8.52755
RightLeg  35.3735 6.10095 4.39628
RightFoot  -17.0589 0.559975 14.1317
RightToes  -1.74624e-010 0 -3.6325e-017
Spine  4.42004 2.31423 1.7297
Spine1  8.25991 5.33333 -12.8491
HEad  -17.4363 -15.6697 -2.40724
LeftShoulder1  -0.687168 5.19439 -34.4633
LeftArm  -3.60215 14.5169 -34.2689
LeftForeArm  38.7426 -5.90361 -8.78853
LeftHand  -0.114254 9.43259 -1.691
RightShoulder  -0.952853 -6.13647 29.6154
RightArm  20.4007 12.2499 56.5675
RightForeArm  23.7548 7.01471 9.49506
RightHand  -0.0310143 3.48249 -0.622009
LeftUpLeg  -15.9933 7.6451 -9.22369
LeftLeg  20.2509 6.48687 2.88417
LeftFoot  1.71354 -0.818133 7.04937
LeftToes  -3.96543e-010 8.93632e-011 -2.58531e-011
192
root  -38.5652 38.631 7.57453 -143.534 -79.4316 135.517
RightUpLeg  7.23572 1.00897 -10.0888
RightLeg  47.3506 5.89214 6.49683
RightFoot  -6.1522 -0.713489 16.6817
RightToes  -1.74624e-010 0 -3.6325e-017
Spine  5.35974 2.38137 0.372217
Spine1  7.55425 5.09253 -13.0393
HEad  -16.8542 -14.6197 -3.47551
LeftShoulder1  -0.700095 5.22278 -34.5285
LeftArm  -3.61194 9.31744 -35.8203
LeftForeArm  39.1837 -5.8785 -8.9823
LeftHand  -0.148818 10.1647 -2.16738
RightShoulder  -0.894459 -5.99927 29.2519
RightArm  17.9464 9.3003 56.9148
RightForeArm  30.468 1.93284 9.39998
RightHand  0.0535135 0.292714 1.0461
LeftUpLeg  -13.8325 7.74392 -9.90448
LeftLeg  21.1682 7.91911 3.32001
LeftFoot  -0.558321 -0.682762 7.25711
LeftToes  -3.96543e-010 8.93632e-011 -2.58531e-011
193
root  -39.6748 38.7672 7.64809 -142.107 -79.0186 133.893
RightUpLeg  0.548105 2.06173 -11.1133
RightLeg  57.5431 4.93177 7.84256
RightFoot  6.1354 -2.04318 13.3224
RightToes  -1.74624e-010 0 -3.6325e-017
Spine  5.35143 1.72418 -1.47341
Spine1  7.78595 4.08622 -12.4374
HEad  -17.4031 -13.1648 -3.5429
LeftShoulder1  -0.623929 5.07666 -33.5184
LeftArm  -3.55779 3.91495 -38.1526
LeftForeArm  38.9966 -6.14189 -9.16051
LeftHand  -0.105882 9.04075 -1.69842
RightShoulder  -0.950775 -6.08593 30.2502
RightArm  18.6538 7.07123 55.2398
RightForeArm  35.4582 0.831456 9.78567
RightHand  0.119076 0.239687 2.4198
LeftUpLeg  -11.708 7.3968 -10.3788
LeftLeg  21.2071 8.65555 3.22412
LeftFoot  -2.40478 -0.547109 7.16841
LeftToes  -3.96543e-010 8.93632e-011 -2.58531e-011
